<?xml version="1.1" standalone="no"?>
<svg xmlns="http://www.w3.org/2000/svg" version="1.1" baseProfile="full" width="326.4300079345703" height="46.34748882607541" viewBox="0 0 403.5677479973267 57.29973114058687" class="css-1j8o68f">
	<defs id="SvgjsDefs5457">
	</defs>
	<g id="SvgjsG5458" featurekey="nameLeftFeature-0" transform="matrix(2.252476070221686,0,0,2.252476070221686,-2.252475801705614,-0.21633743744101608)" fill="#000000">
		<path d="M10.5 20 l-6.4 -7.08 l-1.94 1.86 l0 5.22 l-1.16 0 l0 -14 l1.16 0 l0 8.2 l8.56 -8.2 l0.6 0 l-6.42 6.14 l7.06 7.86 l-1.46 0 z M13.16 20 l0 -14 l1.16 0 l0 6.66 l7.98 0 l0 -6.66 l1.16 0 l0 14 l-1.16 0 l0 -6.98 l-7.98 0 l0 6.98 l-1.16 0 z M34.5 20 l-1.3 -3.58 l-6.88 0 l-1.24 3.58 l-0.42 0 l4.96 -14 l1.04 0 l5.02 14 l-1.18 0 z M26.46 16.06 l6.62 0 l-3.38 -9.34 z M46.78 6 l0 0.36 l-4.76 0 l0 13.64 l-1.16 0 l0 -13.64 l-4.78 0 l0 -0.36 l10.7 0 z M57.28 6.359999999999999 l-8.14 0 l0 6.3 l7.38 0 l0 0.36 l-7.38 0 l0 6.62 l8.14 0 l0 0.36 l-9.3 0 l0 -14 l9.3 0 l0 0.36 z M69.24000000000001 20 l-1.44 0 l-5.06 -6.96 c-0.98 -0.02 -1.84 -0.08 -2.8 -0.16 l0 7.12 l-1.16 0 l0 -14 c2.06 -0.1 3.3 -0.16 4.66 -0.12 c2.6 0.08 4.44 1.58 4.44 3.62 c0 2.02 -1.5 3.46 -3.68 3.56 z M59.94 6.42 l0 6.02 c0.92 0.16 2.62 0.26 3.72 0.26 c2 0 3.28 -1.32 3.12 -3.2 c-0.16 -1.9 -1.68 -3.24 -3.68 -3.24 c-1.72 0 -2.88 0.12 -3.16 0.16 z M79.47999999999999 20 l-1.3 -3.58 l-6.88 0 l-1.24 3.58 l-0.42 0 l4.96 -14 l1.04 0 l5.02 14 l-1.18 0 z M71.44 16.06 l6.62 0 l-3.38 -9.34 z">
		</path>
	</g>
	<g id="SvgjsG5459" featurekey="inlineSymbolFeature-0" transform="matrix(0.5732631856509838,0,0,0.5732631856509838,193.98997948371436,-0.012255448508109949)" fill="#000000">
		<path xmlns="http://www.w3.org/2000/svg" fill="#000000" d="M92.139,54.505c-6.827-10.277-15.203-4.646-26.324-1.971c-11.121,2.673-8.447-14.782,1.548-30.267  c9.994-15.485,0.212-21.116-7.32-16.049c-4.99,3.357-30.06,14.671-34.49,3.801c-1.167-2.864-2.306-5.93-4.136-7.76  c-0.389-0.39-0.563-0.141-0.431,0.286c0.27,0.875,0.484,1.551,0.873,3.218c0.41,1.662,0.852,3.693,1.292,6.038  c0.457,2.343,0.861,5.005,1.21,7.924c0.329,2.919,0.643,6.093,0.777,9.46c0.1,1.683,0.133,3.414,0.176,5.183  c0.034,0.885,0.016,1.78,0.008,2.683c-0.008,0.903-0.017,1.815-0.025,2.735c-0.037,1.817-0.053,3.641,0.006,5.483  c0.028,0.918,0.08,1.836,0.157,2.742c0.076,0.903,0.181,1.805,0.369,2.63c0.093,0.41,0.206,0.803,0.343,1.135  c0.136,0.329,0.303,0.586,0.428,0.701c0.132,0.105,0.167,0.133,0.379,0.15c0.201,0.02,0.548-0.037,0.918-0.143  c0.76-0.222,1.626-0.611,2.51-1.002c0.89-0.394,1.811-0.808,2.779-1.158c1.928-0.708,4.053-1.207,6.225-1.181  c2.018,0.047,4.04,0.218,6.033,0.625c1.999,0.396,3.936,1.107,5.709,2.001c1.771,0.903,3.387,1.971,4.892,3.088  c3.014,2.236,5.612,4.672,8.064,6.973c2.445,2.3,4.692,4.566,6.74,6.61c0.982,0.928,2.104,1.723,3.188,2.385  c1.094,0.662,2.2,1.178,3.279,1.534c2.161,0.733,4.207,0.787,5.811,0.438c0.805-0.172,1.498-0.43,2.095-0.682  c0.587-0.267,1.074-0.537,1.451-0.783c0.188-0.126,0.354-0.236,0.497-0.332c0.138-0.103,0.253-0.191,0.346-0.262  c0.188-0.142,0.284-0.215,0.284-0.215l0.008-0.007c0.037-0.028,0.09-0.021,0.118,0.017c0.026,0.036,0.021,0.087-0.013,0.115  c0,0-0.094,0.079-0.274,0.233c-0.09,0.077-0.202,0.172-0.335,0.285c-0.138,0.109-0.304,0.228-0.487,0.365  c-0.739,0.534-1.908,1.266-3.578,1.704c-1.659,0.439-3.819,0.479-6.118-0.19c-2.293-0.66-4.732-1.929-6.954-3.86  c-2.136-1.997-4.431-4.169-6.911-6.413c-2.486-2.233-5.129-4.575-8.077-6.715c-1.476-1.062-3.037-2.062-4.713-2.888  c-1.679-0.817-3.473-1.447-5.342-1.812c-1.869-0.371-3.792-0.526-5.721-0.562c-1.919-0.013-3.824,0.436-5.633,1.11  c-0.907,0.336-1.798,0.719-2.688,1.109c-0.893,0.386-1.782,0.79-2.733,1.064c-0.476,0.128-0.974,0.233-1.488,0.192  c-0.513-0.024-1.029-0.251-1.397-0.611c-0.37-0.362-0.614-0.812-0.802-1.268c-0.187-0.457-0.314-0.931-0.419-1.403  c-0.398-1.899-0.467-3.813-0.511-5.693c-0.033-1.882,0.011-3.74,0.074-5.565c0.101-3.645,0.154-7.171,0.046-10.513  c-0.066-3.343-0.283-6.498-0.512-9.406c-0.267-2.905-0.557-5.565-0.905-7.911c-0.336-2.346-0.689-4.383-1.024-6.052  c-0.402-2.052-0.631-3.175-1.136-3.892c-1.373-1.945-3.387-2.371-5.842-1.513C10.799,1.715,8.105,9.125,8.87,34.515  c0.731,24.271,14.15,54.462,40.674,57.09v2.86c-14.857,0.096-26.607,1.291-26.607,2.752c0,1.524,12.764,2.758,28.507,2.758  c15.744,0,28.507-1.233,28.507-2.758c0-1.461-11.748-2.656-26.606-2.752v-2.656C82.379,91.791,100.397,66.932,92.139,54.505z">
		</path>
	</g>
	<g id="SvgjsG5460" featurekey="nameRightFeature-0" transform="matrix(2.213712211578092,0,0,2.213712211578092,253.38950489260185,0.07192562449946571)" fill="#000000">
		<path d="M19.380000000000003 13.04 c0 4.2 -2.7 7.18 -6.42 7.18 c-3.64 0 -6.36 -2.98 -6.36 -7.2 c0 -4.2 2.72 -7.18 6.56 -7.18 c2 0 3.56 0.88 4.72 2.26 l-1.04 0.54 c-1.1 -1.42 -2.5 -2.34 -4.26 -2.34 c-3.22 0 -5.24 2.78 -4.9 6.72 s2.86 6.74 5.86 6.74 c2.98 0 4.98 -2.62 4.78 -6.36 l-3.58 0 l0 -0.36 l4.64 0 z M31.340000000000003 20 l-1.44 0 l-5.06 -6.96 c-0.98 -0.02 -1.84 -0.08 -2.8 -0.16 l0 7.12 l-1.16 0 l0 -14 c2.06 -0.1 3.3 -0.16 4.66 -0.12 c2.6 0.08 4.44 1.58 4.44 3.62 c0 2.02 -1.5 3.46 -3.68 3.56 z M22.040000000000003 6.42 l0 6.02 c0.92 0.16 2.62 0.26 3.72 0.26 c2 0 3.28 -1.32 3.12 -3.2 c-0.16 -1.9 -1.68 -3.24 -3.68 -3.24 c-1.72 0 -2.88 0.12 -3.16 0.16 z M38.7 20.22 c-3.84 0 -6.56 -2.98 -6.56 -7.2 c0 -4.2 2.72 -7.18 6.56 -7.18 s6.54 2.98 6.54 7.18 c0 4.22 -2.7 7.2 -6.54 7.2 z M39.28 19.76 c3.2 0 5.22 -2.8 4.88 -6.74 s-2.86 -6.72 -6.04 -6.72 c-3.22 0 -5.24 2.78 -4.9 6.72 s2.86 6.74 6.06 6.74 z M51.6 12.120000000000001 c3.32 0.46 4.94 2.12 4.94 4.2 c0 2.44 -2.14 3.9 -5.18 3.9 c-2.4 0 -4.14 -0.82 -4.92 -2.1 l0.9 -0.62 c0.6 1.36 2.16 2.34 4.32 2.34 c2.4 0 3.98 -1.34 3.8 -3.52 c-0.16 -1.8 -1.68 -2.96 -4.3 -3.3 c-3.1 -0.4 -4.46 -1.6 -4.46 -3.66 c0 -2 1.9 -3.52 4.78 -3.52 c2.06 0 3.72 0.94 4.32 2.4 l-0.94 0.48 c-0.52 -1.38 -1.88 -2.5 -3.66 -2.5 c-2.26 0 -3.62 1.4 -3.44 3.14 c0.16 1.74 1.48 2.42 3.84 2.76 z M62.9 12.120000000000001 c3.32 0.46 4.94 2.12 4.94 4.2 c0 2.44 -2.14 3.9 -5.18 3.9 c-2.4 0 -4.14 -0.82 -4.92 -2.1 l0.9 -0.62 c0.6 1.36 2.16 2.34 4.32 2.34 c2.4 0 3.98 -1.34 3.8 -3.52 c-0.16 -1.8 -1.68 -2.96 -4.3 -3.3 c-3.1 -0.4 -4.46 -1.6 -4.46 -3.66 c0 -2 1.9 -3.52 4.78 -3.52 c2.06 0 3.72 0.94 4.32 2.4 l-0.94 0.48 c-0.52 -1.38 -1.88 -2.5 -3.66 -2.5 c-2.26 0 -3.62 1.4 -3.44 3.14 c0.16 1.74 1.48 2.42 3.84 2.76 z">
		</path>
	</g>
</svg>
