<?xml version="1.1" standalone="no"?>
<svg xmlns="http://www.w3.org/2000/svg" version="1.1" baseProfile="full" width="225.32392968183942" height="232.0150085449219" viewBox="0 0 320.6628766927186 330.185081455628" class="css-1j8o68f">
	<defs id="SvgjsDefs5996">
	</defs>
	<g id="SvgjsG5997" featurekey="symbolFeature-0" transform="matrix(2.6957787027550957,0,0,2.6957787027550957,25.542940513290844,-49.19526702741321)" fill="#000000">
		<path xmlns="http://www.w3.org/2000/svg" fill="#000000" d="M95,78.999H84.5v-41.25h6c0.002,0,0.004,0,0.005,0c0.414,0,0.75-0.336,0.75-0.75  c0-0.094-0.017-0.183-0.048-0.266l-2.229-8.916c-0.084-0.334-0.386-0.568-0.729-0.568h-9c-0.345,0-0.646,0.234-0.729,0.568l-2.25,9  c-0.056,0.224-0.006,0.461,0.139,0.643c0.142,0.183,0.359,0.289,0.591,0.289h6v41.25h-7.5v-3H77c0.414,0,0.75-0.336,0.75-0.75v-13.5  c0-0.414-0.336-0.75-0.75-0.75h-3.75v-3.75c0-1.654-1.346-3-3-3h-13.5c-0.896,0-1.699,0.396-2.25,1.021  c-0.551-0.625-1.354-1.021-2.25-1.021h-13.5c-1.654,0-3,1.346-3,3v3.75H32c-0.414,0-0.75,0.336-0.75,0.75v13.5  c0,0.414,0.336,0.75,0.75,0.75h1.5v3h-7.939l-6.311-6.311v-5.689h2.482h3.518c0.414,0,0.75-0.336,0.75-0.75s-0.336-0.75-0.75-0.75  h-2.616l1.086-5.863c0.041-0.219-0.019-0.445-0.161-0.615c-0.142-0.172-0.354-0.271-0.576-0.271H20.57l0.803-7.301  c0.216,0.052,0.438,0.082,0.661,0.082c1.013,0,1.956-0.546,2.461-1.421c1.703-2.948,0.912-6.008,0.877-6.137  c-0.107-0.399-0.519-0.637-0.918-0.531c-0.129,0.035-3.173,0.881-4.876,3.83c-0.637,1.104-0.446,2.461,0.378,3.351L19.06,58.75  h-1.141l-0.908-10.301c0.668-0.488,1.147-1.183,1.365-1.993c0.251-0.939,0.123-1.922-0.364-2.766  c-2.298-3.979-6.403-5.118-6.577-5.166c-0.192-0.051-0.397-0.024-0.569,0.075c-0.172,0.1-0.298,0.263-0.349,0.455  c-0.046,0.174-1.113,4.297,1.186,8.279c0.648,1.124,1.858,1.821,3.157,1.821c0.236,0,0.471-0.023,0.702-0.068l0.852,9.662h-2.431  c-0.223,0-0.435,0.102-0.577,0.271c-0.143,0.172-0.202,0.396-0.161,0.615l1.086,5.863H11.75c-0.414,0-0.75,0.336-0.75,0.75  S11.336,67,11.75,67h3.482h2.518v5.688L11.439,79H5c-0.414,0-0.75,0.336-0.75,0.75S4.586,80.5,5,80.5h90  c0.414,0,0.75-0.336,0.75-0.75S95.414,78.999,95,78.999z M79.836,28.749h7.828l1.875,7.5H77.961L79.836,28.749z M20.875,48.021  c0.902-1.562,2.302-2.414,3.174-2.819c0.085,0.96,0.047,2.598-0.854,4.159c-0.239,0.414-0.684,0.67-1.162,0.67  c-0.233,0-0.464-0.062-0.668-0.18C20.727,49.481,20.507,48.661,20.875,48.021z M13.001,46.583c-1.42-2.46-1.341-5.048-1.179-6.326  c1.189,0.499,3.47,1.725,4.89,4.184c0.286,0.496,0.362,1.074,0.214,1.627c-0.148,0.554-0.502,1.016-0.999,1.302  c-0.326,0.188-0.695,0.287-1.068,0.287C14.095,47.655,13.383,47.245,13.001,46.583z M14.884,60.249h7.197l-0.972,5.25h-5.252  L14.884,60.249z M53.75,69.999h-16.5v-3h16.5V69.999z M55.25,66.999h16.5v3h-16.5V66.999z M56.75,55.749h13.5  c0.827,0,1.5,0.673,1.5,1.5v8.25h-16.5v-8.25C55.25,56.422,55.923,55.749,56.75,55.749z M37.25,57.249c0-0.827,0.673-1.5,1.5-1.5  h13.5c0.827,0,1.5,0.673,1.5,1.5v8.25h-16.5V57.249z M32.75,62.499h3v8.25c0,0.414,0.336,0.75,0.75,0.75h18h18  c0.414,0,0.75-0.336,0.75-0.75v-8.25h3v12h-43.5V62.499z M35,75.999h39v3H35V75.999z M23.439,78.999H19.25V74.81L23.439,78.999z   M17.75,74.81v4.189h-4.189L17.75,74.81z">
		</path>
		<path xmlns="http://www.w3.org/2000/svg" fill="#000000" d="M23,35.499h13.5c0.414,0,0.75-0.336,0.75-0.75v-15.75c0-0.414-0.336-0.75-0.75-0.75h-6.22H23  c-0.414,0-0.75,0.336-0.75,0.75v10.864v4.886C22.25,35.163,22.586,35.499,23,35.499z M35.75,33.999h-12v-3.157  c0.492,0.1,0.993,0.157,1.5,0.157c4.136,0,7.5-3.364,7.5-7.5c0-1.328-0.353-2.618-1.007-3.75h4.007V33.999z M23.75,19.749h6.183  c0.852,1.062,1.317,2.381,1.317,3.75c0,3.309-2.691,6-6,6c-0.509,0-1.011-0.064-1.5-0.189V19.749z">
		</path>
		<path xmlns="http://www.w3.org/2000/svg" fill="#000000" d="M41,44.499h27c0.414,0,0.75-0.336,0.75-0.75v-20.25c0-0.414-0.336-0.75-0.75-0.75H41  c-0.414,0-0.75,0.336-0.75,0.75v20.25C40.25,44.163,40.586,44.499,41,44.499z M41.75,37.31l3.75-3.75l9.439,9.439H41.75V37.31z   M67.25,24.249v18.75H57.061L46.03,31.969c-0.293-0.293-0.768-0.293-1.061,0l-3.219,3.219V24.249H67.25z">
		</path>
		<path xmlns="http://www.w3.org/2000/svg" fill="#000000" d="M59,37.749c2.895,0,5.25-2.355,5.25-5.25s-2.355-5.25-5.25-5.25s-5.25,2.355-5.25,5.25  S56.105,37.749,59,37.749z M59,28.749c2.068,0,3.75,1.682,3.75,3.75s-1.682,3.75-3.75,3.75s-3.75-1.682-3.75-3.75  S56.932,28.749,59,28.749z">
		</path>
	</g>
	<g id="SvgjsG5998" featurekey="nameFeature-0" transform="matrix(4.0253936976059075,0,0,4.0253936976059075,-4.025393217741585,164.38112025719673)" fill="#000000">
		<path d="M10.5 20 l-6.4 -7.08 l-1.94 1.86 l0 5.22 l-1.16 0 l0 -14 l1.16 0 l0 8.2 l8.56 -8.2 l0.6 0 l-6.42 6.14 l7.06 7.86 l-1.46 0 z M13.16 20 l0 -14 l1.16 0 l0 6.66 l7.98 0 l0 -6.66 l1.16 0 l0 14 l-1.16 0 l0 -6.98 l-7.98 0 l0 6.98 l-1.16 0 z M34.5 20 l-1.3 -3.58 l-6.88 0 l-1.24 3.58 l-0.42 0 l4.96 -14 l1.04 0 l5.02 14 l-1.18 0 z M26.46 16.06 l6.62 0 l-3.38 -9.34 z M46.78 6 l0 0.36 l-4.76 0 l0 13.64 l-1.16 0 l0 -13.64 l-4.78 0 l0 -0.36 l10.7 0 z M57.28 6.359999999999999 l-8.14 0 l0 6.3 l7.38 0 l0 0.36 l-7.38 0 l0 6.62 l8.14 0 l0 0.36 l-9.3 0 l0 -14 l9.3 0 l0 0.36 z M69.24000000000001 20 l-1.44 0 l-5.06 -6.96 c-0.98 -0.02 -1.84 -0.08 -2.8 -0.16 l0 7.12 l-1.16 0 l0 -14 c2.06 -0.1 3.3 -0.16 4.66 -0.12 c2.6 0.08 4.44 1.58 4.44 3.62 c0 2.02 -1.5 3.46 -3.68 3.56 z M59.94 6.42 l0 6.02 c0.92 0.16 2.62 0.26 3.72 0.26 c2 0 3.28 -1.32 3.12 -3.2 c-0.16 -1.9 -1.68 -3.24 -3.68 -3.24 c-1.72 0 -2.88 0.12 -3.16 0.16 z M79.47999999999999 20 l-1.3 -3.58 l-6.88 0 l-1.24 3.58 l-0.42 0 l4.96 -14 l1.04 0 l5.02 14 l-1.18 0 z M71.44 16.06 l6.62 0 l-3.38 -9.34 z">
		</path>
	</g>
	<g id="SvgjsG5999" featurekey="nameFeature-1" transform="matrix(5.236167013455032,0,0,5.236167013455032,-3.1416997087132192,224.42079632644192)" fill="#000000">
		<path d="M13.38 13.04 c0 4.2 -2.7 7.18 -6.42 7.18 c-3.64 0 -6.36 -2.98 -6.36 -7.2 c0 -4.2 2.72 -7.18 6.56 -7.18 c2 0 3.56 0.88 4.72 2.26 l-1.04 0.54 c-1.1 -1.42 -2.5 -2.34 -4.26 -2.34 c-3.22 0 -5.24 2.78 -4.9 6.72 s2.86 6.74 5.86 6.74 c2.98 0 4.98 -2.62 4.78 -6.36 l-3.58 0 l0 -0.36 l4.64 0 z M25.340000000000003 20 l-1.44 0 l-5.06 -6.96 c-0.98 -0.02 -1.84 -0.08 -2.8 -0.16 l0 7.12 l-1.16 0 l0 -14 c2.06 -0.1 3.3 -0.16 4.66 -0.12 c2.6 0.08 4.44 1.58 4.44 3.62 c0 2.02 -1.5 3.46 -3.68 3.56 z M16.04 6.42 l0 6.02 c0.92 0.16 2.62 0.26 3.72 0.26 c2 0 3.28 -1.32 3.12 -3.2 c-0.16 -1.9 -1.68 -3.24 -3.68 -3.24 c-1.72 0 -2.88 0.12 -3.16 0.16 z M32.7 20.22 c-3.84 0 -6.56 -2.98 -6.56 -7.2 c0 -4.2 2.72 -7.18 6.56 -7.18 s6.54 2.98 6.54 7.18 c0 4.22 -2.7 7.2 -6.54 7.2 z M33.28 19.76 c3.2 0 5.22 -2.8 4.88 -6.74 s-2.86 -6.72 -6.04 -6.72 c-3.22 0 -5.24 2.78 -4.9 6.72 s2.86 6.74 6.06 6.74 z M45.6 12.120000000000001 c3.32 0.46 4.94 2.12 4.94 4.2 c0 2.44 -2.14 3.9 -5.18 3.9 c-2.4 0 -4.14 -0.82 -4.92 -2.1 l0.9 -0.62 c0.6 1.36 2.16 2.34 4.32 2.34 c2.4 0 3.98 -1.34 3.8 -3.52 c-0.16 -1.8 -1.68 -2.96 -4.3 -3.3 c-3.1 -0.4 -4.46 -1.6 -4.46 -3.66 c0 -2 1.9 -3.52 4.78 -3.52 c2.06 0 3.72 0.94 4.32 2.4 l-0.94 0.48 c-0.52 -1.38 -1.88 -2.5 -3.66 -2.5 c-2.26 0 -3.62 1.4 -3.44 3.14 c0.16 1.74 1.48 2.42 3.84 2.76 z M56.9 12.120000000000001 c3.32 0.46 4.94 2.12 4.94 4.2 c0 2.44 -2.14 3.9 -5.18 3.9 c-2.4 0 -4.14 -0.82 -4.92 -2.1 l0.9 -0.62 c0.6 1.36 2.16 2.34 4.32 2.34 c2.4 0 3.98 -1.34 3.8 -3.52 c-0.16 -1.8 -1.68 -2.96 -4.3 -3.3 c-3.1 -0.4 -4.46 -1.6 -4.46 -3.66 c0 -2 1.9 -3.52 4.78 -3.52 c2.06 0 3.72 0.94 4.32 2.4 l-0.94 0.48 c-0.52 -1.38 -1.88 -2.5 -3.66 -2.5 c-2.26 0 -3.62 1.4 -3.44 3.14 c0.16 1.74 1.48 2.42 3.84 2.76 z">
		</path>
	</g>
</svg>
