<?xml version="1.1" standalone="no"?>
<svg xmlns="http://www.w3.org/2000/svg" version="1.1" baseProfile="full" viewBox="0 0 181 55.25699871563189" preserveAspectRatio="xMidYMid meet">
	<g featurekey="nameLeftFeature-0" transform="matrix(2.139728968077008,0,0,2.139728968077008,-2.0541395083647553,-0.7218440647081188)" fill="currentColor">
		<path d="M12.2 17.86 c-1.22 1.52 -2.88 2.26 -4.82 2.26 c-0.56 0 -1.1 -0.08 -1.64 -0.22 c-0.62 -0.22 -1.22 -0.46 -1.76 -0.8 c-1.22 -0.86 -2.1 -1.78 -2.52 -3.28 c-0.02 0 -0.02 -0.02 -0.02 -0.04 c0 0 0 -0.02 -0.02 -0.04 l0 -0.04 c-0.02 0 -0.02 -0.02 -0.02 -0.04 c-0.04 -0.12 -0.08 -0.22 -0.1 -0.34 c0 0 -0.04 -0.1 -0.04 -0.12 l0 -0.02 l0 0 l0 -0.02 c-0.02 0 -0.02 -0.02 -0.02 -0.04 c-0.04 -0.14 -0.06 -0.28 -0.1 -0.4 c-0.12 -0.54 -0.18 -1.08 -0.18 -1.62 c0 -0.26 0.02 -0.5 0.02 -0.74 c0 -0.18 0.02 -0.34 0.06 -0.52 c0.14 -1.16 0.56 -2.26 1.26 -3.2 c0.02 -0.02 0.04 -0.06 0.06 -0.08 c0.62 -0.86 1.44 -1.56 2.36 -2.04 c0.04 -0.02 0.08 -0.04 0.1 -0.06 c0.52 -0.22 1.02 -0.38 1.58 -0.46 l-0.02 0 c0.1 0 0.2 -0.02 0.3 -0.02 c1.54 -0.16 3.16 0.24 4.42 1.14 c0.8 0.56 1.64 1.66 1.84 2.62 c-0.04 0.12 -0.28 0.02 -0.4 0.04 c-0.28 -0.06 -0.68 0.06 -0.9 -0.08 c0 -0.02 -0.02 -0.02 -0.02 -0.04 c-0.04 -0.08 -0.08 -0.16 -0.12 -0.26 l0 0.02 c-0.08 -0.14 -0.16 -0.26 -0.24 -0.38 c-0.84 -1.08 -1.94 -1.64 -3.26 -1.8 c-0.42 -0.04 -0.84 -0.04 -1.28 0.02 l0.02 0 c-1.44 0.22 -2.58 0.9 -3.42 2.08 c-0.58 0.92 -0.84 1.72 -0.98 2.82 c-0.06 0.6 0 1.2 0.08 1.8 l0 0.04 c0.1 0.62 0.24 1.24 0.52 1.82 c0.98 1.8 2.1 2.86 4.3 2.96 c1.88 0 3.5 -0.72 4.38 -2.48 c0.3 -0.2 0.84 -0.04 1.2 -0.08 c0.22 0.06 -0.06 0.54 -0.08 0.7 c-0.14 0.34 -0.32 0.66 -0.54 0.94 z M7.44 13.379999999999999 c-0.36 0.14 -0.62 -0.54 -0.94 -0.7 c-0.1 -0.38 0.56 -0.64 0.72 -0.98 c0.34 -0.12 0.6 0.52 0.88 0.7 c0.24 0.34 -0.52 0.66 -0.66 0.98 z M0.96 13.08 l0 0.02 l0 -0.02 z M25.880000000000003 19.98 c-0.28 -0.04 -0.66 0.1 -0.88 -0.02 c0.06 -2.14 0.06 -4.28 0.08 -6.42 c-0.34 0.02 -0.68 0 -1.02 0 l-0.32 0 l-0.26 0 c-1.76 0.04 -3.52 0.04 -5.28 0.08 c0.02 2.1 0.02 4.2 0.08 6.3 c-0.36 0.14 -0.9 0 -1.32 0.04 c-0.02 0 -0.06 -0.02 -0.06 -0.04 c0 -1.2 0.02 -2.4 0.02 -3.6 l0 -0.04 c-0.02 -1.16 0 -2.34 0.02 -3.5 c0 -2.2 -0.02 -4.38 -0.08 -6.58 c-0.06 -0.34 0.64 -0.1 0.88 -0.16 c0.16 0.02 0.38 -0.08 0.5 0.04 c0 1.2 -0.02 2.4 -0.02 3.58 l0 0.06 c0.02 0.88 0 1.76 -0.02 2.64 c2.3 0.04 4.58 -0.06 6.88 0.02 c-0.02 -0.88 -0.04 -1.76 -0.02 -2.64 c-0.02 -0.02 0 -0.02 0 -0.04 c0 -1.1 0 -2.18 -0.02 -3.28 c0 -0.1 -0.02 -0.22 0 -0.32 c0 -0.02 0.04 -0.04 0.06 -0.04 c0.3 0.08 1.38 -0.22 1.32 0.18 c-0.06 2.18 -0.08 4.38 -0.08 6.58 c0.02 1.16 0.04 2.32 0.02 3.5 l0 0.04 c0 1.08 0 2.18 0.02 3.26 c0 0.1 0.02 0.22 -0.02 0.34 c-0.1 0.1 -0.32 0 -0.48 0.02 z M18.12 12.46 l0 0.1 l0 -0.1 z M18.1 13.620000000000001 l0 0.18 l0 -0.18 z M38.879999999999995 16.56 c-0.38 0 -0.86 0.1 -1.18 0 c-0.02 -0.04 -0.02 -0.06 -0.04 -0.08 c-0.02 -0.08 -0.04 -0.14 -0.06 -0.22 c-0.36 -0.94 -0.64 -1.92 -1.06 -2.84 c-1.36 -0.02 -2.74 -0.02 -4.1 0 c-0.42 0.92 -0.7 1.9 -1.06 2.84 c-0.02 0.08 -0.04 0.14 -0.06 0.22 c-0.02 0.02 -0.02 0.04 -0.04 0.08 c-0.32 0.1 -0.8 0 -1.18 0 c-0.48 0.06 0.44 -1.54 0.46 -1.88 c1.08 -2.88 2.18 -5.8 3.26 -8.66 c0.42 -0.02 0.92 -0.02 1.34 0 c1.28 3.48 2.66 6.98 3.9 10.48 c0 0.08 -0.12 0.04 -0.18 0.06 z M34.48 8.06 c-0.58 1.42 -1.16 2.86 -1.7 4.3 c1.14 -0.02 2.26 -0.04 3.4 -0.04 c-0.54 -1.42 -1.1 -2.84 -1.7 -4.26 z M34.62 19.9 c-0.38 0.12 -0.64 -0.56 -0.94 -0.72 c-0.12 -0.38 0.52 -0.64 0.68 -0.96 c0.34 -0.24 0.66 0.54 0.96 0.68 c0.12 0.38 -0.54 0.66 -0.7 1 z M45.92 19.94 c-0.32 0.08 -0.78 0.06 -1.14 0.08 c-0.22 -4.18 0.04 -8.52 -0.04 -12.74 c-1.12 -0.02 -2.24 -0.04 -3.36 -0.02 c-0.1 -0.02 -0.06 -0.24 -0.08 -0.34 c0 -0.12 -0.02 -0.26 -0.02 -0.38 c0 -0.1 0 -0.2 0.02 -0.3 c0.08 -0.38 0.78 -0.14 1.1 -0.22 c2.32 -0.02 4.68 0.02 6.96 0.06 c0.06 0.36 0.04 0.78 0.06 1.14 c-1.06 0.18 -2.32 0.04 -3.44 0.08 c0.04 4.2 -0.02 8.44 -0.06 12.64 z M59.760000000000005 16.68 c-2.38 0 -4.76 0.04 -7.12 0 c-0.04 0 -0.12 0 -0.12 -0.06 c-0.08 -0.94 -0.04 -1.9 -0.02 -2.84 c0.02 -2.52 -0.12 -5.04 -0.02 -7.54 c0 -0.04 0 -0.08 0.04 -0.1 c2.42 -0.1 4.94 -0.08 7.4 -0.1 c0.04 0 0.08 0.02 0.08 0.06 l0 0.02 c-0.04 0.36 0.12 0.92 -0.08 1.2 c-2.04 0.04 -4.06 0.02 -6.08 0.06 c0 1.16 -0.02 2.32 0.02 3.48 l0.38 0 c1.46 0.06 3.02 -0.08 4.44 0.02 c-0.12 0.32 0.22 1.28 -0.3 1.18 c-1.52 -0.02 -3.04 0 -4.56 0 c0.02 1.14 0.04 2.26 0.06 3.4 c2.04 -0.02 4.06 -0.04 6.1 -0.02 c0.04 -0.02 0.08 0 0.08 0.04 c-0.1 0.32 0.16 1.3 -0.3 1.2 z M58.6 10.92 c-0.02 0.02 -0.02 0.04 0 0.04 l0 -0.04 z M56.400000000000006 19.96 c-0.36 0.12 -0.62 -0.56 -0.94 -0.74 c-0.1 -0.38 0.56 -0.64 0.72 -0.98 c0.36 -0.12 0.64 0.54 0.94 0.72 c0.12 0.38 -0.56 0.66 -0.72 1 z M73.4 20.28 c-0.76 0.02 -1.38 0.1 -1.8 -0.66 c-0.7 -0.88 -0.98 -2 -1.48 -3 c-0.48 -0.86 -1.1 -1.68 -1.98 -2.18 c-0.12 -0.08 -0.26 -0.16 -0.4 -0.22 c-0.84 -0.02 -1.68 0 -2.52 -0.08 c0.02 1.78 0 3.58 0 5.36 c-0.04 0.12 0.06 0.48 -0.08 0.5 c-0.34 0 -0.68 0 -1 -0.04 c-0.06 -0.04 -0.26 0.02 -0.24 -0.1 c0.12 -3.88 0 -7.78 0.06 -11.68 c0 -0.7 -0.04 -1.4 0 -2.1 c0.02 -0.04 0.06 -0.04 0.08 -0.04 c0.28 0 0.56 -0.02 0.82 0 c0.96 -0.02 1.92 -0.02 2.88 0.02 c0.66 0.02 1.34 0.06 1.96 0.32 c1.5 0.66 2.38 1.96 2.46 3.6 c0 0.02 0 0.02 0.02 0.04 l0 0.04 l0 0.08 c0 0.08 -0.02 0.18 -0.02 0.26 c-0.02 0.18 -0.02 0.36 -0.06 0.54 c-0.08 0.52 -0.26 1.02 -0.56 1.48 c-0.32 0.42 -0.6 0.78 -1.04 1.08 c-0.04 0.02 -0.08 0.06 -0.12 0.08 c-0.1 0.08 -0.16 0.1 -0.26 0.14 c-0.22 0.12 -0.44 0.2 -0.66 0.26 c0.8 0.54 1.6 1.44 2 2.34 l0 -0.02 c0.4 0.72 0.64 1.5 1.02 2.22 c0.12 0.2 0.24 0.4 0.38 0.6 c0.24 0.46 0.88 0.78 1.06 1.12 c-0.16 0.06 -0.36 0.04 -0.52 0.04 z M65.24000000000001 12.940000000000001 c1.42 -0.02 3.02 0.24 4.34 -0.42 c0.16 -0.08 0.3 -0.2 0.42 -0.3 c0.06 -0.04 0.1 -0.1 0.16 -0.14 c0.08 -0.08 0.14 -0.18 0.22 -0.26 c0.06 -0.1 0.14 -0.22 0.2 -0.36 c0.56 -1.22 0.3 -2.88 -0.8 -3.7 c-0.72 -0.48 -1.56 -0.58 -2.42 -0.58 c-0.72 0 -1.44 0.06 -2.12 0.06 l0 5.7 z M71.36 12.7 l0 0 z M73.94 20.24 l0 0 z M85.06 16.56 c-0.38 0 -0.86 0.1 -1.18 0 c-0.02 -0.04 -0.02 -0.06 -0.04 -0.08 c-0.02 -0.08 -0.04 -0.14 -0.06 -0.22 c-0.36 -0.94 -0.64 -1.92 -1.06 -2.84 c-1.36 -0.02 -2.74 -0.02 -4.1 0 c-0.42 0.92 -0.7 1.9 -1.06 2.84 c-0.02 0.08 -0.04 0.14 -0.06 0.22 c-0.02 0.02 -0.02 0.04 -0.04 0.08 c-0.32 0.1 -0.8 0 -1.18 0 c-0.48 0.06 0.44 -1.54 0.46 -1.88 c1.08 -2.88 2.18 -5.8 3.26 -8.66 c0.42 -0.02 0.92 -0.02 1.34 0 c1.28 3.48 2.66 6.98 3.9 10.48 c0 0.08 -0.12 0.04 -0.18 0.06 z M80.66 8.06 c-0.58 1.42 -1.16 2.86 -1.7 4.3 c1.14 -0.02 2.26 -0.04 3.4 -0.04 c-0.54 -1.42 -1.1 -2.84 -1.7 -4.26 z M80.8 19.9 c-0.38 0.12 -0.64 -0.56 -0.94 -0.72 c-0.12 -0.38 0.52 -0.64 0.68 -0.96 c0.34 -0.24 0.66 0.54 0.96 0.68 c0.12 0.38 -0.54 0.66 -0.7 1 z">
		</path>
	</g>
</svg>
